<?xml version="1.0" encoding="utf-8"?>
<!-- Generator: Adobe Illustrator 18.1.1, SVG Export Plug-In . SVG Version: 6.00 Build 0)  -->
<svg version="1.1" id="Layer_1" xmlns="http://www.w3.org/2000/svg" xmlns:xlink="http://www.w3.org/1999/xlink" x="0px" y="0px"
	 viewBox="0 0 300 300" enable-background="new 0 0 300 300" xml:space="preserve">
<ellipse transform="matrix(0.9863 -0.165 0.165 0.9863 -25.2998 26.7418)" fill="#34E3AB" cx="148.3" cy="165.7" rx="76.6" ry="73.7"/>
<g>
	<path fill="#FFFFFF" d="M111.1,219c-21.5,0-39.6-15.4-43.2-36.5c-4-23.8,12.1-46.4,35.9-50.4l75.5-12.6c2.4-0.4,4.8-0.6,7.2-0.6
		c21.5,0,39.6,15.4,43.2,36.5c1.9,11.5-0.8,23.1-7.6,32.6c-6.8,9.5-16.9,15.8-28.4,17.8l-75.5,12.6C116,218.8,113.5,219,111.1,219z"
		/>
	<path fill="#34E3AB" d="M186.6,123.4c18.8,0,35.5,13.6,38.7,32.8v0c3.6,21.3-10.9,41.6-32.2,45.2L117.6,214
		c-2.2,0.4-4.3,0.5-6.5,0.5c-18.8,0-35.5-13.6-38.7-32.8v0c-3.6-21.3,10.9-41.6,32.2-45.2l75.5-12.6
		C182.3,123.6,184.5,123.4,186.6,123.4 M186.6,114.4v9V114.4c-2.7,0-5.3,0.2-7.9,0.7l-75.5,12.6c-12.7,2.1-23.8,9.1-31.3,19.6
		c-7.5,10.5-10.5,23.3-8.3,35.9c1.9,11.3,7.8,21.6,16.6,29c8.7,7.3,19.7,11.3,31,11.3c2.6,0,5.3-0.2,7.9-0.7l75.5-12.6
		c12.7-2.1,23.8-9.1,31.3-19.6s10.5-23.3,8.3-35.9c-1.9-11.3-7.8-21.6-16.6-29C208.9,118.4,197.9,114.4,186.6,114.4L186.6,114.4z"/>
</g>
<path opacity="0.33" fill="#34E3AB" d="M99,150.6c9.5-6,24.5-11.2,33.4-0.5c8.9,10.7,4.9,29.8-2.9,39.9
	C106.6,219.8,66.2,173.5,99,150.6C99.5,150.2,96.4,152.4,99,150.6z"/>
<circle fill="#34E3AB" cx="132.5" cy="71.3" r="12.4"/>
<rect x="131.7" y="76.5" transform="matrix(0.9863 -0.165 0.165 0.9863 -12.7696 23.5609)" fill="#34E3AB" width="7.6" height="24.4"/>
<path fill="#34E3AB" d="M154.6,193.6c0,0,3.5-3.5,5.9-6.5c2.8-3.5,1.7-8.2-2.6-10c-1.1-0.5-2.3-0.7-3.5-0.5l-8.3,1.4
	c-1.2,0.2-2.2,0.8-3.1,1.6c-3.5,3.1-3,7.9,0.8,10.3c3.3,2.1,8.1,4.1,8.1,4.1"/>
<path fill="none" stroke="#34E3AB" stroke-width="4.4008" stroke-linecap="round" stroke-miterlimit="10" d="M166.6,194.7
	c-2,3.8-6.4,6.8-11.8,7.8c-5.9,1-11.4-0.8-14.4-4.2"/>
<rect x="151.5" y="189.6" transform="matrix(0.9863 -0.165 0.165 0.9863 -30.3713 28.0292)" fill="#34E3AB" width="4" height="14.5"/>
<g>
	<circle fill="#34E3AB" cx="116.7" cy="174.8" r="9.5"/>
	<circle fill="#34E3AB" cx="181.2" cy="164.1" r="9.5"/>
</g>
</svg>
